<mxfile host="Electron" modified="2024-04-27T12:59:37.824Z" agent="Mozilla/5.0 (Windows NT 10.0; Win64; x64) AppleWebKit/537.36 (KHTML, like Gecko) draw.io/24.2.5 Chrome/120.0.6099.109 Electron/28.1.0 Safari/537.36" etag="K_dBDX4AbWK_5ZcDcEB0" version="24.2.5" type="device">
  <diagram name="第 1 页" id="Nz9c7XQSzr3vUiT-zVZE">
    <mxGraphModel dx="2640" dy="3960" grid="1" gridSize="10" guides="1" tooltips="1" connect="1" arrows="1" fold="1" page="1" pageScale="1" pageWidth="827" pageHeight="1169" math="0" shadow="0">
      <root>
        <mxCell id="0" />
        <mxCell id="1" parent="0" />
        <mxCell id="qrF5LxdkEoTXr47cuK2b-1" value="算法与数据结构&amp;nbsp; &amp;gt;&amp;gt;&amp;gt;&amp;gt;&amp;nbsp; 思维与逻辑结构" style="text;html=1;align=center;verticalAlign=middle;whiteSpace=wrap;rounded=0;fontStyle=1;fontSize=25;fillColor=#d80073;fontColor=#ffffff;strokeColor=#A50040;" vertex="1" parent="1">
          <mxGeometry x="173" y="16" width="497" height="50" as="geometry" />
        </mxCell>
        <mxCell id="qrF5LxdkEoTXr47cuK2b-2" value="2.1 队列与栈 （顺序表实现循环队列）" style="text;html=1;align=center;verticalAlign=middle;whiteSpace=wrap;rounded=0;fontStyle=1;fontSize=22;fillColor=#d80073;fontColor=#ffffff;strokeColor=#A50040;" vertex="1" parent="1">
          <mxGeometry x="231.5" y="90" width="390" height="40" as="geometry" />
        </mxCell>
        <mxCell id="qrF5LxdkEoTXr47cuK2b-30" value="" style="group" vertex="1" connectable="0" parent="1">
          <mxGeometry x="131" y="156" width="544" height="103" as="geometry" />
        </mxCell>
        <mxCell id="qrF5LxdkEoTXr47cuK2b-3" value="" style="rounded=0;whiteSpace=wrap;html=1;fillColor=#ffe6cc;strokeColor=#d79b00;" vertex="1" parent="qrF5LxdkEoTXr47cuK2b-30">
          <mxGeometry x="4" y="63" width="60" height="40" as="geometry" />
        </mxCell>
        <mxCell id="qrF5LxdkEoTXr47cuK2b-4" value="" style="rounded=0;whiteSpace=wrap;html=1;fillColor=#fff2cc;strokeColor=#d6b656;" vertex="1" parent="qrF5LxdkEoTXr47cuK2b-30">
          <mxGeometry x="64" y="63" width="60" height="40" as="geometry" />
        </mxCell>
        <mxCell id="qrF5LxdkEoTXr47cuK2b-5" value="" style="rounded=0;whiteSpace=wrap;html=1;fillColor=#f8cecc;strokeColor=#b85450;" vertex="1" parent="qrF5LxdkEoTXr47cuK2b-30">
          <mxGeometry x="124" y="63" width="60" height="40" as="geometry" />
        </mxCell>
        <mxCell id="qrF5LxdkEoTXr47cuK2b-6" value="" style="rounded=0;whiteSpace=wrap;html=1;fillColor=#dae8fc;strokeColor=#6c8ebf;" vertex="1" parent="qrF5LxdkEoTXr47cuK2b-30">
          <mxGeometry x="184" y="63" width="60" height="40" as="geometry" />
        </mxCell>
        <mxCell id="qrF5LxdkEoTXr47cuK2b-7" value="" style="rounded=0;whiteSpace=wrap;html=1;fillColor=#d5e8d4;strokeColor=#82b366;" vertex="1" parent="qrF5LxdkEoTXr47cuK2b-30">
          <mxGeometry x="244" y="63" width="60" height="40" as="geometry" />
        </mxCell>
        <mxCell id="qrF5LxdkEoTXr47cuK2b-8" value="" style="rounded=0;whiteSpace=wrap;html=1;" vertex="1" parent="qrF5LxdkEoTXr47cuK2b-30">
          <mxGeometry x="304" y="63" width="60" height="40" as="geometry" />
        </mxCell>
        <mxCell id="qrF5LxdkEoTXr47cuK2b-9" value="" style="rounded=0;whiteSpace=wrap;html=1;" vertex="1" parent="qrF5LxdkEoTXr47cuK2b-30">
          <mxGeometry x="364" y="63" width="60" height="40" as="geometry" />
        </mxCell>
        <mxCell id="qrF5LxdkEoTXr47cuK2b-10" value="" style="rounded=0;whiteSpace=wrap;html=1;" vertex="1" parent="qrF5LxdkEoTXr47cuK2b-30">
          <mxGeometry x="424" y="63" width="60" height="40" as="geometry" />
        </mxCell>
        <mxCell id="qrF5LxdkEoTXr47cuK2b-11" value="" style="rounded=0;whiteSpace=wrap;html=1;" vertex="1" parent="qrF5LxdkEoTXr47cuK2b-30">
          <mxGeometry x="484" y="63" width="60" height="40" as="geometry" />
        </mxCell>
        <mxCell id="qrF5LxdkEoTXr47cuK2b-18" value="" style="endArrow=classic;html=1;rounded=0;fontSize=7;" edge="1" parent="qrF5LxdkEoTXr47cuK2b-30">
          <mxGeometry width="50" height="50" relative="1" as="geometry">
            <mxPoint x="25.75" y="23" as="sourcePoint" />
            <mxPoint x="25.5" y="53" as="targetPoint" />
          </mxGeometry>
        </mxCell>
        <mxCell id="qrF5LxdkEoTXr47cuK2b-19" value="head" style="text;html=1;align=center;verticalAlign=middle;whiteSpace=wrap;rounded=0;fontStyle=1;fontSize=9;" vertex="1" parent="qrF5LxdkEoTXr47cuK2b-30">
          <mxGeometry width="50" height="30" as="geometry" />
        </mxCell>
        <mxCell id="qrF5LxdkEoTXr47cuK2b-23" value="" style="endArrow=classic;html=1;rounded=0;fontSize=7;" edge="1" parent="qrF5LxdkEoTXr47cuK2b-30">
          <mxGeometry width="50" height="50" relative="1" as="geometry">
            <mxPoint x="274.75" y="23" as="sourcePoint" />
            <mxPoint x="274.5" y="53" as="targetPoint" />
          </mxGeometry>
        </mxCell>
        <mxCell id="qrF5LxdkEoTXr47cuK2b-24" value="tail" style="text;html=1;align=center;verticalAlign=middle;whiteSpace=wrap;rounded=0;fontStyle=1;fontSize=9;" vertex="1" parent="qrF5LxdkEoTXr47cuK2b-30">
          <mxGeometry x="249" width="50" height="30" as="geometry" />
        </mxCell>
        <mxCell id="qrF5LxdkEoTXr47cuK2b-25" value="1" style="ellipse;whiteSpace=wrap;html=1;aspect=fixed;" vertex="1" parent="qrF5LxdkEoTXr47cuK2b-30">
          <mxGeometry x="24" y="73" width="20" height="20" as="geometry" />
        </mxCell>
        <mxCell id="qrF5LxdkEoTXr47cuK2b-26" value="2" style="ellipse;whiteSpace=wrap;html=1;aspect=fixed;" vertex="1" parent="qrF5LxdkEoTXr47cuK2b-30">
          <mxGeometry x="82.5" y="73" width="20" height="20" as="geometry" />
        </mxCell>
        <mxCell id="qrF5LxdkEoTXr47cuK2b-27" value="3" style="ellipse;whiteSpace=wrap;html=1;aspect=fixed;" vertex="1" parent="qrF5LxdkEoTXr47cuK2b-30">
          <mxGeometry x="142.5" y="73" width="20" height="20" as="geometry" />
        </mxCell>
        <mxCell id="qrF5LxdkEoTXr47cuK2b-28" value="4" style="ellipse;whiteSpace=wrap;html=1;aspect=fixed;" vertex="1" parent="qrF5LxdkEoTXr47cuK2b-30">
          <mxGeometry x="202.5" y="73" width="20" height="20" as="geometry" />
        </mxCell>
        <mxCell id="qrF5LxdkEoTXr47cuK2b-29" value="5" style="ellipse;whiteSpace=wrap;html=1;aspect=fixed;" vertex="1" parent="qrF5LxdkEoTXr47cuK2b-30">
          <mxGeometry x="262.5" y="73" width="20" height="20" as="geometry" />
        </mxCell>
        <mxCell id="qrF5LxdkEoTXr47cuK2b-31" value="" style="group" vertex="1" connectable="0" parent="1">
          <mxGeometry x="131" y="366" width="544" height="103" as="geometry" />
        </mxCell>
        <mxCell id="qrF5LxdkEoTXr47cuK2b-32" value="" style="rounded=0;whiteSpace=wrap;html=1;fillColor=#ffe6cc;strokeColor=#d79b00;" vertex="1" parent="qrF5LxdkEoTXr47cuK2b-31">
          <mxGeometry x="4" y="63" width="60" height="40" as="geometry" />
        </mxCell>
        <mxCell id="qrF5LxdkEoTXr47cuK2b-33" value="" style="rounded=0;whiteSpace=wrap;html=1;fillColor=#fff2cc;strokeColor=#d6b656;" vertex="1" parent="qrF5LxdkEoTXr47cuK2b-31">
          <mxGeometry x="64" y="63" width="60" height="40" as="geometry" />
        </mxCell>
        <mxCell id="qrF5LxdkEoTXr47cuK2b-34" value="" style="rounded=0;whiteSpace=wrap;html=1;fillColor=#f8cecc;strokeColor=#b85450;" vertex="1" parent="qrF5LxdkEoTXr47cuK2b-31">
          <mxGeometry x="124" y="63" width="60" height="40" as="geometry" />
        </mxCell>
        <mxCell id="qrF5LxdkEoTXr47cuK2b-35" value="" style="rounded=0;whiteSpace=wrap;html=1;fillColor=#dae8fc;strokeColor=#6c8ebf;" vertex="1" parent="qrF5LxdkEoTXr47cuK2b-31">
          <mxGeometry x="184" y="63" width="60" height="40" as="geometry" />
        </mxCell>
        <mxCell id="qrF5LxdkEoTXr47cuK2b-36" value="" style="rounded=0;whiteSpace=wrap;html=1;fillColor=#d5e8d4;strokeColor=#82b366;" vertex="1" parent="qrF5LxdkEoTXr47cuK2b-31">
          <mxGeometry x="244" y="63" width="60" height="40" as="geometry" />
        </mxCell>
        <mxCell id="qrF5LxdkEoTXr47cuK2b-37" value="" style="rounded=0;whiteSpace=wrap;html=1;" vertex="1" parent="qrF5LxdkEoTXr47cuK2b-31">
          <mxGeometry x="304" y="63" width="60" height="40" as="geometry" />
        </mxCell>
        <mxCell id="qrF5LxdkEoTXr47cuK2b-38" value="" style="rounded=0;whiteSpace=wrap;html=1;" vertex="1" parent="qrF5LxdkEoTXr47cuK2b-31">
          <mxGeometry x="364" y="63" width="60" height="40" as="geometry" />
        </mxCell>
        <mxCell id="qrF5LxdkEoTXr47cuK2b-39" value="" style="rounded=0;whiteSpace=wrap;html=1;" vertex="1" parent="qrF5LxdkEoTXr47cuK2b-31">
          <mxGeometry x="424" y="63" width="60" height="40" as="geometry" />
        </mxCell>
        <mxCell id="qrF5LxdkEoTXr47cuK2b-40" value="" style="rounded=0;whiteSpace=wrap;html=1;" vertex="1" parent="qrF5LxdkEoTXr47cuK2b-31">
          <mxGeometry x="484" y="63" width="60" height="40" as="geometry" />
        </mxCell>
        <mxCell id="qrF5LxdkEoTXr47cuK2b-41" value="" style="endArrow=classic;html=1;rounded=0;fontSize=7;" edge="1" parent="qrF5LxdkEoTXr47cuK2b-31">
          <mxGeometry width="50" height="50" relative="1" as="geometry">
            <mxPoint x="93.25" y="23" as="sourcePoint" />
            <mxPoint x="93" y="53" as="targetPoint" />
          </mxGeometry>
        </mxCell>
        <mxCell id="qrF5LxdkEoTXr47cuK2b-42" value="head" style="text;html=1;align=center;verticalAlign=middle;whiteSpace=wrap;rounded=0;fontStyle=1;fontSize=9;" vertex="1" parent="qrF5LxdkEoTXr47cuK2b-31">
          <mxGeometry x="67.5" width="50" height="30" as="geometry" />
        </mxCell>
        <mxCell id="qrF5LxdkEoTXr47cuK2b-43" value="" style="endArrow=classic;html=1;rounded=0;fontSize=7;" edge="1" parent="qrF5LxdkEoTXr47cuK2b-31">
          <mxGeometry width="50" height="50" relative="1" as="geometry">
            <mxPoint x="274.75" y="23" as="sourcePoint" />
            <mxPoint x="274.5" y="53" as="targetPoint" />
          </mxGeometry>
        </mxCell>
        <mxCell id="qrF5LxdkEoTXr47cuK2b-44" value="tail" style="text;html=1;align=center;verticalAlign=middle;whiteSpace=wrap;rounded=0;fontStyle=1;fontSize=9;" vertex="1" parent="qrF5LxdkEoTXr47cuK2b-31">
          <mxGeometry x="249" width="50" height="30" as="geometry" />
        </mxCell>
        <mxCell id="qrF5LxdkEoTXr47cuK2b-45" value="1" style="ellipse;whiteSpace=wrap;html=1;aspect=fixed;" vertex="1" parent="qrF5LxdkEoTXr47cuK2b-31">
          <mxGeometry x="24" y="73" width="20" height="20" as="geometry" />
        </mxCell>
        <mxCell id="qrF5LxdkEoTXr47cuK2b-46" value="2" style="ellipse;whiteSpace=wrap;html=1;aspect=fixed;" vertex="1" parent="qrF5LxdkEoTXr47cuK2b-31">
          <mxGeometry x="82.5" y="73" width="20" height="20" as="geometry" />
        </mxCell>
        <mxCell id="qrF5LxdkEoTXr47cuK2b-47" value="3" style="ellipse;whiteSpace=wrap;html=1;aspect=fixed;" vertex="1" parent="qrF5LxdkEoTXr47cuK2b-31">
          <mxGeometry x="142.5" y="73" width="20" height="20" as="geometry" />
        </mxCell>
        <mxCell id="qrF5LxdkEoTXr47cuK2b-48" value="4" style="ellipse;whiteSpace=wrap;html=1;aspect=fixed;" vertex="1" parent="qrF5LxdkEoTXr47cuK2b-31">
          <mxGeometry x="202.5" y="73" width="20" height="20" as="geometry" />
        </mxCell>
        <mxCell id="qrF5LxdkEoTXr47cuK2b-49" value="5" style="ellipse;whiteSpace=wrap;html=1;aspect=fixed;" vertex="1" parent="qrF5LxdkEoTXr47cuK2b-31">
          <mxGeometry x="262.5" y="73" width="20" height="20" as="geometry" />
        </mxCell>
        <mxCell id="qrF5LxdkEoTXr47cuK2b-51" value="" style="endArrow=none;html=1;rounded=0;exitX=0;exitY=1;exitDx=0;exitDy=0;fillColor=#e51400;strokeColor=#B20000;" edge="1" parent="qrF5LxdkEoTXr47cuK2b-31" source="qrF5LxdkEoTXr47cuK2b-32">
          <mxGeometry width="50" height="50" relative="1" as="geometry">
            <mxPoint x="9" y="113" as="sourcePoint" />
            <mxPoint x="59" y="63" as="targetPoint" />
          </mxGeometry>
        </mxCell>
        <mxCell id="qrF5LxdkEoTXr47cuK2b-164" value="" style="endArrow=classic;html=1;rounded=0;" edge="1" parent="qrF5LxdkEoTXr47cuK2b-31">
          <mxGeometry width="50" height="50" relative="1" as="geometry">
            <mxPoint x="71.5" as="sourcePoint" />
            <mxPoint x="111.5" as="targetPoint" />
          </mxGeometry>
        </mxCell>
        <mxCell id="qrF5LxdkEoTXr47cuK2b-50" value="pop()" style="rounded=1;whiteSpace=wrap;html=1;fillColor=#d80073;fontColor=#ffffff;strokeColor=#A50040;fontStyle=1" vertex="1" parent="1">
          <mxGeometry x="379.5" y="486" width="70" height="30" as="geometry" />
        </mxCell>
        <mxCell id="qrF5LxdkEoTXr47cuK2b-53" value="顺序表实现队列" style="rounded=1;whiteSpace=wrap;html=1;fillColor=#d80073;fontColor=#ffffff;strokeColor=#A50040;fontStyle=1" vertex="1" parent="1">
          <mxGeometry x="338.5" y="276" width="152" height="30" as="geometry" />
        </mxCell>
        <mxCell id="qrF5LxdkEoTXr47cuK2b-55" value="" style="group" vertex="1" connectable="0" parent="1">
          <mxGeometry x="131" y="586" width="544" height="103" as="geometry" />
        </mxCell>
        <mxCell id="qrF5LxdkEoTXr47cuK2b-56" value="" style="rounded=0;whiteSpace=wrap;html=1;" vertex="1" parent="qrF5LxdkEoTXr47cuK2b-55">
          <mxGeometry x="4" y="63" width="60" height="40" as="geometry" />
        </mxCell>
        <mxCell id="qrF5LxdkEoTXr47cuK2b-57" value="" style="rounded=0;whiteSpace=wrap;html=1;fillColor=#fff2cc;strokeColor=#d6b656;" vertex="1" parent="qrF5LxdkEoTXr47cuK2b-55">
          <mxGeometry x="64" y="63" width="60" height="40" as="geometry" />
        </mxCell>
        <mxCell id="qrF5LxdkEoTXr47cuK2b-58" value="" style="rounded=0;whiteSpace=wrap;html=1;fillColor=#f8cecc;strokeColor=#b85450;" vertex="1" parent="qrF5LxdkEoTXr47cuK2b-55">
          <mxGeometry x="124" y="63" width="60" height="40" as="geometry" />
        </mxCell>
        <mxCell id="qrF5LxdkEoTXr47cuK2b-59" value="" style="rounded=0;whiteSpace=wrap;html=1;fillColor=#dae8fc;strokeColor=#6c8ebf;" vertex="1" parent="qrF5LxdkEoTXr47cuK2b-55">
          <mxGeometry x="184" y="63" width="60" height="40" as="geometry" />
        </mxCell>
        <mxCell id="qrF5LxdkEoTXr47cuK2b-60" value="" style="rounded=0;whiteSpace=wrap;html=1;fillColor=#d5e8d4;strokeColor=#82b366;" vertex="1" parent="qrF5LxdkEoTXr47cuK2b-55">
          <mxGeometry x="244" y="63" width="60" height="40" as="geometry" />
        </mxCell>
        <mxCell id="qrF5LxdkEoTXr47cuK2b-61" value="" style="rounded=0;whiteSpace=wrap;html=1;fillColor=#e1d5e7;strokeColor=#9673a6;" vertex="1" parent="qrF5LxdkEoTXr47cuK2b-55">
          <mxGeometry x="304" y="63" width="60" height="40" as="geometry" />
        </mxCell>
        <mxCell id="qrF5LxdkEoTXr47cuK2b-62" value="" style="rounded=0;whiteSpace=wrap;html=1;" vertex="1" parent="qrF5LxdkEoTXr47cuK2b-55">
          <mxGeometry x="364" y="63" width="60" height="40" as="geometry" />
        </mxCell>
        <mxCell id="qrF5LxdkEoTXr47cuK2b-63" value="" style="rounded=0;whiteSpace=wrap;html=1;" vertex="1" parent="qrF5LxdkEoTXr47cuK2b-55">
          <mxGeometry x="424" y="63" width="60" height="40" as="geometry" />
        </mxCell>
        <mxCell id="qrF5LxdkEoTXr47cuK2b-64" value="" style="rounded=0;whiteSpace=wrap;html=1;" vertex="1" parent="qrF5LxdkEoTXr47cuK2b-55">
          <mxGeometry x="484" y="63" width="60" height="40" as="geometry" />
        </mxCell>
        <mxCell id="qrF5LxdkEoTXr47cuK2b-65" value="" style="endArrow=classic;html=1;rounded=0;fontSize=7;" edge="1" parent="qrF5LxdkEoTXr47cuK2b-55">
          <mxGeometry width="50" height="50" relative="1" as="geometry">
            <mxPoint x="93.25" y="23" as="sourcePoint" />
            <mxPoint x="93" y="53" as="targetPoint" />
          </mxGeometry>
        </mxCell>
        <mxCell id="qrF5LxdkEoTXr47cuK2b-66" value="head" style="text;html=1;align=center;verticalAlign=middle;whiteSpace=wrap;rounded=0;fontStyle=1;fontSize=9;" vertex="1" parent="qrF5LxdkEoTXr47cuK2b-55">
          <mxGeometry x="67.5" width="50" height="30" as="geometry" />
        </mxCell>
        <mxCell id="qrF5LxdkEoTXr47cuK2b-69" value="1" style="ellipse;whiteSpace=wrap;html=1;aspect=fixed;" vertex="1" parent="qrF5LxdkEoTXr47cuK2b-55">
          <mxGeometry x="24" y="73" width="20" height="20" as="geometry" />
        </mxCell>
        <mxCell id="qrF5LxdkEoTXr47cuK2b-70" value="2" style="ellipse;whiteSpace=wrap;html=1;aspect=fixed;" vertex="1" parent="qrF5LxdkEoTXr47cuK2b-55">
          <mxGeometry x="82.5" y="73" width="20" height="20" as="geometry" />
        </mxCell>
        <mxCell id="qrF5LxdkEoTXr47cuK2b-71" value="3" style="ellipse;whiteSpace=wrap;html=1;aspect=fixed;" vertex="1" parent="qrF5LxdkEoTXr47cuK2b-55">
          <mxGeometry x="142.5" y="73" width="20" height="20" as="geometry" />
        </mxCell>
        <mxCell id="qrF5LxdkEoTXr47cuK2b-72" value="4" style="ellipse;whiteSpace=wrap;html=1;aspect=fixed;" vertex="1" parent="qrF5LxdkEoTXr47cuK2b-55">
          <mxGeometry x="202.5" y="73" width="20" height="20" as="geometry" />
        </mxCell>
        <mxCell id="qrF5LxdkEoTXr47cuK2b-73" value="5" style="ellipse;whiteSpace=wrap;html=1;aspect=fixed;" vertex="1" parent="qrF5LxdkEoTXr47cuK2b-55">
          <mxGeometry x="262.5" y="73" width="20" height="20" as="geometry" />
        </mxCell>
        <mxCell id="qrF5LxdkEoTXr47cuK2b-74" value="" style="endArrow=none;html=1;rounded=0;exitX=0;exitY=1;exitDx=0;exitDy=0;fillColor=#e51400;strokeColor=#B20000;" edge="1" parent="qrF5LxdkEoTXr47cuK2b-55" source="qrF5LxdkEoTXr47cuK2b-56">
          <mxGeometry width="50" height="50" relative="1" as="geometry">
            <mxPoint x="9" y="113" as="sourcePoint" />
            <mxPoint x="59" y="63" as="targetPoint" />
          </mxGeometry>
        </mxCell>
        <mxCell id="qrF5LxdkEoTXr47cuK2b-76" value="" style="endArrow=classic;html=1;rounded=0;fontSize=7;" edge="1" parent="qrF5LxdkEoTXr47cuK2b-55">
          <mxGeometry width="50" height="50" relative="1" as="geometry">
            <mxPoint x="336.25" y="23" as="sourcePoint" />
            <mxPoint x="336" y="53" as="targetPoint" />
          </mxGeometry>
        </mxCell>
        <mxCell id="qrF5LxdkEoTXr47cuK2b-77" value="tail" style="text;html=1;align=center;verticalAlign=middle;whiteSpace=wrap;rounded=0;fontStyle=1;fontSize=9;" vertex="1" parent="qrF5LxdkEoTXr47cuK2b-55">
          <mxGeometry x="310.5" width="50" height="30" as="geometry" />
        </mxCell>
        <mxCell id="qrF5LxdkEoTXr47cuK2b-78" value="6" style="ellipse;whiteSpace=wrap;html=1;aspect=fixed;" vertex="1" parent="qrF5LxdkEoTXr47cuK2b-55">
          <mxGeometry x="323.5" y="73" width="20" height="20" as="geometry" />
        </mxCell>
        <mxCell id="qrF5LxdkEoTXr47cuK2b-75" value="push()" style="rounded=1;whiteSpace=wrap;html=1;fillColor=#d80073;fontColor=#ffffff;strokeColor=#A50040;fontStyle=1" vertex="1" parent="1">
          <mxGeometry x="379.5" y="706" width="70" height="30" as="geometry" />
        </mxCell>
        <mxCell id="qrF5LxdkEoTXr47cuK2b-100" value="" style="group" vertex="1" connectable="0" parent="1">
          <mxGeometry x="131" y="776" width="544" height="103" as="geometry" />
        </mxCell>
        <mxCell id="qrF5LxdkEoTXr47cuK2b-101" value="" style="rounded=0;whiteSpace=wrap;html=1;" vertex="1" parent="qrF5LxdkEoTXr47cuK2b-100">
          <mxGeometry x="4" y="63" width="60" height="40" as="geometry" />
        </mxCell>
        <mxCell id="qrF5LxdkEoTXr47cuK2b-102" value="" style="rounded=0;whiteSpace=wrap;html=1;" vertex="1" parent="qrF5LxdkEoTXr47cuK2b-100">
          <mxGeometry x="64" y="63" width="60" height="40" as="geometry" />
        </mxCell>
        <mxCell id="qrF5LxdkEoTXr47cuK2b-103" value="" style="rounded=0;whiteSpace=wrap;html=1;" vertex="1" parent="qrF5LxdkEoTXr47cuK2b-100">
          <mxGeometry x="124" y="63" width="60" height="40" as="geometry" />
        </mxCell>
        <mxCell id="qrF5LxdkEoTXr47cuK2b-104" value="" style="rounded=0;whiteSpace=wrap;html=1;fillColor=#dae8fc;strokeColor=#6c8ebf;" vertex="1" parent="qrF5LxdkEoTXr47cuK2b-100">
          <mxGeometry x="184" y="63" width="60" height="40" as="geometry" />
        </mxCell>
        <mxCell id="qrF5LxdkEoTXr47cuK2b-105" value="" style="rounded=0;whiteSpace=wrap;html=1;fillColor=#d5e8d4;strokeColor=#82b366;" vertex="1" parent="qrF5LxdkEoTXr47cuK2b-100">
          <mxGeometry x="244" y="63" width="60" height="40" as="geometry" />
        </mxCell>
        <mxCell id="qrF5LxdkEoTXr47cuK2b-106" value="" style="rounded=0;whiteSpace=wrap;html=1;fillColor=#e1d5e7;strokeColor=#9673a6;" vertex="1" parent="qrF5LxdkEoTXr47cuK2b-100">
          <mxGeometry x="304" y="63" width="60" height="40" as="geometry" />
        </mxCell>
        <mxCell id="qrF5LxdkEoTXr47cuK2b-107" value="" style="rounded=0;whiteSpace=wrap;html=1;fillColor=#ffe6cc;strokeColor=#d79b00;" vertex="1" parent="qrF5LxdkEoTXr47cuK2b-100">
          <mxGeometry x="364" y="63" width="60" height="40" as="geometry" />
        </mxCell>
        <mxCell id="qrF5LxdkEoTXr47cuK2b-108" value="" style="rounded=0;whiteSpace=wrap;html=1;fillColor=#fff2cc;strokeColor=#d6b656;" vertex="1" parent="qrF5LxdkEoTXr47cuK2b-100">
          <mxGeometry x="424" y="63" width="60" height="40" as="geometry" />
        </mxCell>
        <mxCell id="qrF5LxdkEoTXr47cuK2b-109" value="" style="rounded=0;whiteSpace=wrap;html=1;fillColor=#f8cecc;strokeColor=#b85450;" vertex="1" parent="qrF5LxdkEoTXr47cuK2b-100">
          <mxGeometry x="484" y="63" width="60" height="40" as="geometry" />
        </mxCell>
        <mxCell id="qrF5LxdkEoTXr47cuK2b-112" value="1" style="ellipse;whiteSpace=wrap;html=1;aspect=fixed;" vertex="1" parent="qrF5LxdkEoTXr47cuK2b-100">
          <mxGeometry x="24" y="73" width="20" height="20" as="geometry" />
        </mxCell>
        <mxCell id="qrF5LxdkEoTXr47cuK2b-113" value="2" style="ellipse;whiteSpace=wrap;html=1;aspect=fixed;" vertex="1" parent="qrF5LxdkEoTXr47cuK2b-100">
          <mxGeometry x="82.5" y="73" width="20" height="20" as="geometry" />
        </mxCell>
        <mxCell id="qrF5LxdkEoTXr47cuK2b-114" value="3" style="ellipse;whiteSpace=wrap;html=1;aspect=fixed;" vertex="1" parent="qrF5LxdkEoTXr47cuK2b-100">
          <mxGeometry x="142.5" y="73" width="20" height="20" as="geometry" />
        </mxCell>
        <mxCell id="qrF5LxdkEoTXr47cuK2b-115" value="4" style="ellipse;whiteSpace=wrap;html=1;aspect=fixed;" vertex="1" parent="qrF5LxdkEoTXr47cuK2b-100">
          <mxGeometry x="202.5" y="73" width="20" height="20" as="geometry" />
        </mxCell>
        <mxCell id="qrF5LxdkEoTXr47cuK2b-116" value="5" style="ellipse;whiteSpace=wrap;html=1;aspect=fixed;" vertex="1" parent="qrF5LxdkEoTXr47cuK2b-100">
          <mxGeometry x="262.5" y="73" width="20" height="20" as="geometry" />
        </mxCell>
        <mxCell id="qrF5LxdkEoTXr47cuK2b-117" value="" style="endArrow=none;html=1;rounded=0;exitX=0;exitY=1;exitDx=0;exitDy=0;fillColor=#e51400;strokeColor=#B20000;" edge="1" parent="qrF5LxdkEoTXr47cuK2b-100" source="qrF5LxdkEoTXr47cuK2b-101">
          <mxGeometry width="50" height="50" relative="1" as="geometry">
            <mxPoint x="9" y="113" as="sourcePoint" />
            <mxPoint x="59" y="63" as="targetPoint" />
          </mxGeometry>
        </mxCell>
        <mxCell id="qrF5LxdkEoTXr47cuK2b-120" value="6" style="ellipse;whiteSpace=wrap;html=1;aspect=fixed;" vertex="1" parent="qrF5LxdkEoTXr47cuK2b-100">
          <mxGeometry x="323.5" y="73" width="20" height="20" as="geometry" />
        </mxCell>
        <mxCell id="qrF5LxdkEoTXr47cuK2b-122" value="" style="endArrow=classic;html=1;rounded=0;fontSize=7;" edge="1" parent="qrF5LxdkEoTXr47cuK2b-100">
          <mxGeometry width="50" height="50" relative="1" as="geometry">
            <mxPoint x="216.25" y="23" as="sourcePoint" />
            <mxPoint x="216" y="53" as="targetPoint" />
          </mxGeometry>
        </mxCell>
        <mxCell id="qrF5LxdkEoTXr47cuK2b-123" value="head" style="text;html=1;align=center;verticalAlign=middle;whiteSpace=wrap;rounded=0;fontStyle=1;fontSize=9;" vertex="1" parent="qrF5LxdkEoTXr47cuK2b-100">
          <mxGeometry x="190.5" width="50" height="30" as="geometry" />
        </mxCell>
        <mxCell id="qrF5LxdkEoTXr47cuK2b-125" value="7" style="ellipse;whiteSpace=wrap;html=1;aspect=fixed;" vertex="1" parent="qrF5LxdkEoTXr47cuK2b-100">
          <mxGeometry x="385.5" y="73" width="20" height="20" as="geometry" />
        </mxCell>
        <mxCell id="qrF5LxdkEoTXr47cuK2b-126" value="8" style="ellipse;whiteSpace=wrap;html=1;aspect=fixed;" vertex="1" parent="qrF5LxdkEoTXr47cuK2b-100">
          <mxGeometry x="444.5" y="73" width="20" height="20" as="geometry" />
        </mxCell>
        <mxCell id="qrF5LxdkEoTXr47cuK2b-127" value="9" style="ellipse;whiteSpace=wrap;html=1;aspect=fixed;" vertex="1" parent="qrF5LxdkEoTXr47cuK2b-100">
          <mxGeometry x="505.5" y="73" width="20" height="20" as="geometry" />
        </mxCell>
        <mxCell id="qrF5LxdkEoTXr47cuK2b-128" value="" style="endArrow=none;html=1;rounded=0;exitX=0;exitY=1;exitDx=0;exitDy=0;fillColor=#e51400;strokeColor=#B20000;" edge="1" parent="qrF5LxdkEoTXr47cuK2b-100">
          <mxGeometry width="50" height="50" relative="1" as="geometry">
            <mxPoint x="70.5" y="103" as="sourcePoint" />
            <mxPoint x="125.5" y="63" as="targetPoint" />
          </mxGeometry>
        </mxCell>
        <mxCell id="qrF5LxdkEoTXr47cuK2b-129" value="" style="endArrow=none;html=1;rounded=0;exitX=0;exitY=1;exitDx=0;exitDy=0;fillColor=#e51400;strokeColor=#B20000;" edge="1" parent="qrF5LxdkEoTXr47cuK2b-100">
          <mxGeometry width="50" height="50" relative="1" as="geometry">
            <mxPoint x="130.5" y="103" as="sourcePoint" />
            <mxPoint x="185.5" y="63" as="targetPoint" />
          </mxGeometry>
        </mxCell>
        <mxCell id="qrF5LxdkEoTXr47cuK2b-121" value="1，2，3已经不再使用，还有位置，但是队列溢出，无法使用1，2，3&lt;div&gt;这种叫做队列假溢出&lt;/div&gt;" style="rounded=1;whiteSpace=wrap;html=1;fillColor=#d80073;fontColor=#ffffff;strokeColor=#A50040;fontStyle=1" vertex="1" parent="1">
          <mxGeometry x="231.5" y="896" width="391" height="30" as="geometry" />
        </mxCell>
        <mxCell id="qrF5LxdkEoTXr47cuK2b-124" value="" style="rounded=0;whiteSpace=wrap;html=1;dashed=1;" vertex="1" parent="1">
          <mxGeometry x="675" y="839" width="60" height="40" as="geometry" />
        </mxCell>
        <mxCell id="qrF5LxdkEoTXr47cuK2b-130" value="" style="endArrow=classic;html=1;rounded=0;" edge="1" parent="1">
          <mxGeometry width="50" height="50" relative="1" as="geometry">
            <mxPoint x="444.5" y="585.17" as="sourcePoint" />
            <mxPoint x="484.5" y="585.17" as="targetPoint" />
          </mxGeometry>
        </mxCell>
        <mxCell id="qrF5LxdkEoTXr47cuK2b-118" value="" style="endArrow=classic;html=1;rounded=0;fontSize=7;" edge="1" parent="1">
          <mxGeometry width="50" height="50" relative="1" as="geometry">
            <mxPoint x="707.25" y="799" as="sourcePoint" />
            <mxPoint x="707" y="829" as="targetPoint" />
          </mxGeometry>
        </mxCell>
        <mxCell id="qrF5LxdkEoTXr47cuK2b-119" value="tail" style="text;html=1;align=center;verticalAlign=middle;whiteSpace=wrap;rounded=0;fontStyle=1;fontSize=9;" vertex="1" parent="1">
          <mxGeometry x="681.5" y="776" width="50" height="30" as="geometry" />
        </mxCell>
        <mxCell id="qrF5LxdkEoTXr47cuK2b-131" value="" style="group" vertex="1" connectable="0" parent="1">
          <mxGeometry x="131" y="966" width="544" height="103" as="geometry" />
        </mxCell>
        <mxCell id="qrF5LxdkEoTXr47cuK2b-132" value="" style="rounded=0;whiteSpace=wrap;html=1;fillColor=#d5e8d4;strokeColor=#82b366;" vertex="1" parent="qrF5LxdkEoTXr47cuK2b-131">
          <mxGeometry x="4" y="63" width="60" height="40" as="geometry" />
        </mxCell>
        <mxCell id="qrF5LxdkEoTXr47cuK2b-133" value="" style="rounded=0;whiteSpace=wrap;html=1;" vertex="1" parent="qrF5LxdkEoTXr47cuK2b-131">
          <mxGeometry x="64" y="63" width="60" height="40" as="geometry" />
        </mxCell>
        <mxCell id="qrF5LxdkEoTXr47cuK2b-134" value="" style="rounded=0;whiteSpace=wrap;html=1;" vertex="1" parent="qrF5LxdkEoTXr47cuK2b-131">
          <mxGeometry x="124" y="63" width="60" height="40" as="geometry" />
        </mxCell>
        <mxCell id="qrF5LxdkEoTXr47cuK2b-135" value="" style="rounded=0;whiteSpace=wrap;html=1;fillColor=#dae8fc;strokeColor=#6c8ebf;" vertex="1" parent="qrF5LxdkEoTXr47cuK2b-131">
          <mxGeometry x="184" y="63" width="60" height="40" as="geometry" />
        </mxCell>
        <mxCell id="qrF5LxdkEoTXr47cuK2b-136" value="" style="rounded=0;whiteSpace=wrap;html=1;fillColor=#d5e8d4;strokeColor=#82b366;" vertex="1" parent="qrF5LxdkEoTXr47cuK2b-131">
          <mxGeometry x="244" y="63" width="60" height="40" as="geometry" />
        </mxCell>
        <mxCell id="qrF5LxdkEoTXr47cuK2b-137" value="" style="rounded=0;whiteSpace=wrap;html=1;fillColor=#e1d5e7;strokeColor=#9673a6;" vertex="1" parent="qrF5LxdkEoTXr47cuK2b-131">
          <mxGeometry x="304" y="63" width="60" height="40" as="geometry" />
        </mxCell>
        <mxCell id="qrF5LxdkEoTXr47cuK2b-138" value="" style="rounded=0;whiteSpace=wrap;html=1;fillColor=#ffe6cc;strokeColor=#d79b00;" vertex="1" parent="qrF5LxdkEoTXr47cuK2b-131">
          <mxGeometry x="364" y="63" width="60" height="40" as="geometry" />
        </mxCell>
        <mxCell id="qrF5LxdkEoTXr47cuK2b-139" value="" style="rounded=0;whiteSpace=wrap;html=1;fillColor=#fff2cc;strokeColor=#d6b656;" vertex="1" parent="qrF5LxdkEoTXr47cuK2b-131">
          <mxGeometry x="424" y="63" width="60" height="40" as="geometry" />
        </mxCell>
        <mxCell id="qrF5LxdkEoTXr47cuK2b-140" value="" style="rounded=0;whiteSpace=wrap;html=1;fillColor=#f8cecc;strokeColor=#b85450;" vertex="1" parent="qrF5LxdkEoTXr47cuK2b-131">
          <mxGeometry x="484" y="63" width="60" height="40" as="geometry" />
        </mxCell>
        <mxCell id="qrF5LxdkEoTXr47cuK2b-141" value="10" style="ellipse;whiteSpace=wrap;html=1;aspect=fixed;" vertex="1" parent="qrF5LxdkEoTXr47cuK2b-131">
          <mxGeometry x="24" y="73" width="20" height="20" as="geometry" />
        </mxCell>
        <mxCell id="qrF5LxdkEoTXr47cuK2b-142" value="2" style="ellipse;whiteSpace=wrap;html=1;aspect=fixed;" vertex="1" parent="qrF5LxdkEoTXr47cuK2b-131">
          <mxGeometry x="82.5" y="73" width="20" height="20" as="geometry" />
        </mxCell>
        <mxCell id="qrF5LxdkEoTXr47cuK2b-143" value="3" style="ellipse;whiteSpace=wrap;html=1;aspect=fixed;" vertex="1" parent="qrF5LxdkEoTXr47cuK2b-131">
          <mxGeometry x="142.5" y="73" width="20" height="20" as="geometry" />
        </mxCell>
        <mxCell id="qrF5LxdkEoTXr47cuK2b-144" value="4" style="ellipse;whiteSpace=wrap;html=1;aspect=fixed;" vertex="1" parent="qrF5LxdkEoTXr47cuK2b-131">
          <mxGeometry x="202.5" y="73" width="20" height="20" as="geometry" />
        </mxCell>
        <mxCell id="qrF5LxdkEoTXr47cuK2b-145" value="5" style="ellipse;whiteSpace=wrap;html=1;aspect=fixed;" vertex="1" parent="qrF5LxdkEoTXr47cuK2b-131">
          <mxGeometry x="262.5" y="73" width="20" height="20" as="geometry" />
        </mxCell>
        <mxCell id="qrF5LxdkEoTXr47cuK2b-147" value="6" style="ellipse;whiteSpace=wrap;html=1;aspect=fixed;" vertex="1" parent="qrF5LxdkEoTXr47cuK2b-131">
          <mxGeometry x="323.5" y="73" width="20" height="20" as="geometry" />
        </mxCell>
        <mxCell id="qrF5LxdkEoTXr47cuK2b-148" value="" style="endArrow=classic;html=1;rounded=0;fontSize=7;" edge="1" parent="qrF5LxdkEoTXr47cuK2b-131">
          <mxGeometry width="50" height="50" relative="1" as="geometry">
            <mxPoint x="216.25" y="23" as="sourcePoint" />
            <mxPoint x="216" y="53" as="targetPoint" />
          </mxGeometry>
        </mxCell>
        <mxCell id="qrF5LxdkEoTXr47cuK2b-149" value="head" style="text;html=1;align=center;verticalAlign=middle;whiteSpace=wrap;rounded=0;fontStyle=1;fontSize=9;" vertex="1" parent="qrF5LxdkEoTXr47cuK2b-131">
          <mxGeometry x="190.5" width="50" height="30" as="geometry" />
        </mxCell>
        <mxCell id="qrF5LxdkEoTXr47cuK2b-150" value="7" style="ellipse;whiteSpace=wrap;html=1;aspect=fixed;" vertex="1" parent="qrF5LxdkEoTXr47cuK2b-131">
          <mxGeometry x="385.5" y="73" width="20" height="20" as="geometry" />
        </mxCell>
        <mxCell id="qrF5LxdkEoTXr47cuK2b-151" value="8" style="ellipse;whiteSpace=wrap;html=1;aspect=fixed;" vertex="1" parent="qrF5LxdkEoTXr47cuK2b-131">
          <mxGeometry x="444.5" y="73" width="20" height="20" as="geometry" />
        </mxCell>
        <mxCell id="qrF5LxdkEoTXr47cuK2b-152" value="9" style="ellipse;whiteSpace=wrap;html=1;aspect=fixed;" vertex="1" parent="qrF5LxdkEoTXr47cuK2b-131">
          <mxGeometry x="505.5" y="73" width="20" height="20" as="geometry" />
        </mxCell>
        <mxCell id="qrF5LxdkEoTXr47cuK2b-153" value="" style="endArrow=none;html=1;rounded=0;exitX=0;exitY=1;exitDx=0;exitDy=0;fillColor=#e51400;strokeColor=#B20000;" edge="1" parent="qrF5LxdkEoTXr47cuK2b-131">
          <mxGeometry width="50" height="50" relative="1" as="geometry">
            <mxPoint x="70.5" y="103" as="sourcePoint" />
            <mxPoint x="125.5" y="63" as="targetPoint" />
          </mxGeometry>
        </mxCell>
        <mxCell id="qrF5LxdkEoTXr47cuK2b-154" value="" style="endArrow=none;html=1;rounded=0;exitX=0;exitY=1;exitDx=0;exitDy=0;fillColor=#e51400;strokeColor=#B20000;" edge="1" parent="qrF5LxdkEoTXr47cuK2b-131">
          <mxGeometry width="50" height="50" relative="1" as="geometry">
            <mxPoint x="130.5" y="103" as="sourcePoint" />
            <mxPoint x="185.5" y="63" as="targetPoint" />
          </mxGeometry>
        </mxCell>
        <mxCell id="qrF5LxdkEoTXr47cuK2b-157" value="" style="endArrow=classic;html=1;rounded=0;fontSize=7;" edge="1" parent="qrF5LxdkEoTXr47cuK2b-131">
          <mxGeometry width="50" height="50" relative="1" as="geometry">
            <mxPoint x="34.75" y="23" as="sourcePoint" />
            <mxPoint x="34.5" y="53" as="targetPoint" />
          </mxGeometry>
        </mxCell>
        <mxCell id="qrF5LxdkEoTXr47cuK2b-158" value="tail" style="text;html=1;align=center;verticalAlign=middle;whiteSpace=wrap;rounded=0;fontStyle=1;fontSize=9;" vertex="1" parent="qrF5LxdkEoTXr47cuK2b-131">
          <mxGeometry x="9" width="50" height="30" as="geometry" />
        </mxCell>
        <mxCell id="qrF5LxdkEoTXr47cuK2b-159" value="使用循环队列解决队列假溢出问题" style="rounded=1;whiteSpace=wrap;html=1;fillColor=#d80073;fontColor=#ffffff;strokeColor=#A50040;fontStyle=1" vertex="1" parent="1">
          <mxGeometry x="307.75" y="1106" width="238.5" height="30" as="geometry" />
        </mxCell>
        <mxCell id="qrF5LxdkEoTXr47cuK2b-162" value="数据结构层面&lt;div&gt;&lt;span style=&quot;font-size: 16px;&quot;&gt;队列和栈属于基于链表和顺序表的一种上层数据结构&lt;/span&gt;&lt;/div&gt;" style="text;html=1;align=center;verticalAlign=middle;whiteSpace=wrap;rounded=0;fontStyle=1;fontSize=22;fillColor=#a20025;fontColor=#ffffff;strokeColor=#6F0000;" vertex="1" parent="1">
          <mxGeometry x="223.25" y="1206" width="407.5" height="73" as="geometry" />
        </mxCell>
        <mxCell id="qrF5LxdkEoTXr47cuK2b-163" value="&lt;font style=&quot;font-size: 16px;&quot;&gt;使用顺序表和链表的特性，加上自己的特性而形成的数据结构&lt;/font&gt;&lt;div style=&quot;&quot;&gt;&lt;span style=&quot;background-color: initial;&quot;&gt;&lt;font style=&quot;font-size: 16px;&quot;&gt;( 队列的特点：FIFO，即先入先出 ）&lt;/font&gt;&lt;/span&gt;&lt;/div&gt;" style="text;html=1;align=center;verticalAlign=middle;whiteSpace=wrap;rounded=0;fontStyle=1;fontSize=22;fillColor=#a20025;fontColor=#ffffff;strokeColor=#6F0000;" vertex="1" parent="1">
          <mxGeometry x="171" y="1296" width="485" height="60" as="geometry" />
        </mxCell>
        <mxCell id="qrF5LxdkEoTXr47cuK2b-167" value="typedef struct Queue {&lt;div style=&quot;font-size: 16px;&quot;&gt;&lt;span style=&quot;white-space: pre; font-size: 16px;&quot;&gt;&#x9;&lt;/span&gt;Vector *data;&lt;br style=&quot;font-size: 16px;&quot;&gt;&lt;/div&gt;&lt;div style=&quot;font-size: 16px;&quot;&gt;&lt;span style=&quot;white-space: pre; font-size: 16px;&quot;&gt;&#x9;&lt;/span&gt;int size, head, tail, count;&lt;br style=&quot;font-size: 16px;&quot;&gt;&lt;/div&gt;&lt;div style=&quot;font-size: 16px;&quot;&gt;} Queue;&lt;/div&gt;" style="rounded=1;whiteSpace=wrap;html=1;align=left;fillColor=#008a00;strokeColor=#005700;fontColor=#ffffff;spacingLeft=17;fontSize=16;spacingBottom=-27;movable=1;resizable=1;rotatable=1;deletable=1;editable=1;locked=0;connectable=1;" vertex="1" parent="1">
          <mxGeometry x="553.5" y="1416" width="258" height="180" as="geometry" />
        </mxCell>
        <mxCell id="qrF5LxdkEoTXr47cuK2b-168" value="队列结构定义" style="text;html=1;align=center;verticalAlign=middle;whiteSpace=wrap;rounded=0;fontColor=#FFFFFF;fontStyle=1;fontSize=15;" vertex="1" parent="1">
          <mxGeometry x="625.5" y="1436" width="114" height="30" as="geometry" />
        </mxCell>
        <mxCell id="qrF5LxdkEoTXr47cuK2b-171" style="edgeStyle=orthogonalEdgeStyle;rounded=0;orthogonalLoop=1;jettySize=auto;html=1;exitX=1;exitY=0.5;exitDx=0;exitDy=0;entryX=0;entryY=0.5;entryDx=0;entryDy=0;" edge="1" parent="1" source="qrF5LxdkEoTXr47cuK2b-169" target="qrF5LxdkEoTXr47cuK2b-167">
          <mxGeometry relative="1" as="geometry" />
        </mxCell>
        <mxCell id="qrF5LxdkEoTXr47cuK2b-169" value="typedef struct Vector {&lt;div&gt;&lt;span style=&quot;white-space: pre;&quot;&gt;&#x9;&lt;/span&gt;int *data;&lt;br&gt;&lt;/div&gt;&lt;div&gt;&lt;span style=&quot;white-space: pre;&quot;&gt;&#x9;&lt;/span&gt;int size, count;&lt;br&gt;&lt;/div&gt;&lt;div&gt;} vector&lt;/div&gt;" style="rounded=1;whiteSpace=wrap;html=1;align=left;fillColor=#008a00;strokeColor=#005700;fontColor=#ffffff;spacingLeft=17;fontSize=16;spacingBottom=-27;movable=1;resizable=1;rotatable=1;deletable=1;editable=1;locked=0;connectable=1;" vertex="1" parent="1">
          <mxGeometry x="250" y="1416" width="220" height="180" as="geometry" />
        </mxCell>
        <mxCell id="qrF5LxdkEoTXr47cuK2b-170" value="顺序表结构定义" style="text;html=1;align=center;verticalAlign=middle;whiteSpace=wrap;rounded=0;fontColor=#FFFFFF;fontStyle=1;fontSize=15;" vertex="1" parent="1">
          <mxGeometry x="303" y="1436" width="114" height="30" as="geometry" />
        </mxCell>
        <mxCell id="qrF5LxdkEoTXr47cuK2b-174" style="edgeStyle=orthogonalEdgeStyle;rounded=0;orthogonalLoop=1;jettySize=auto;html=1;exitX=1;exitY=0.5;exitDx=0;exitDy=0;entryX=0;entryY=0.5;entryDx=0;entryDy=0;" edge="1" parent="1" source="qrF5LxdkEoTXr47cuK2b-172" target="qrF5LxdkEoTXr47cuK2b-169">
          <mxGeometry relative="1" as="geometry" />
        </mxCell>
        <mxCell id="qrF5LxdkEoTXr47cuK2b-172" value="int data[100];" style="rounded=1;whiteSpace=wrap;html=1;align=left;fillColor=#008a00;strokeColor=#005700;fontColor=#ffffff;spacingLeft=17;fontSize=16;spacingBottom=-27;movable=1;resizable=1;rotatable=1;deletable=1;editable=1;locked=0;connectable=1;" vertex="1" parent="1">
          <mxGeometry x="10" y="1416" width="140" height="180" as="geometry" />
        </mxCell>
        <mxCell id="qrF5LxdkEoTXr47cuK2b-173" value="数组" style="text;html=1;align=center;verticalAlign=middle;whiteSpace=wrap;rounded=0;fontColor=#FFFFFF;fontStyle=1;fontSize=15;" vertex="1" parent="1">
          <mxGeometry x="19" y="1436" width="114" height="30" as="geometry" />
        </mxCell>
        <mxCell id="qrF5LxdkEoTXr47cuK2b-175" value="&lt;font color=&quot;#ffff33&quot;&gt;vector *initVector(int n) {&lt;/font&gt;&lt;div&gt;&lt;font color=&quot;#ffff33&quot;&gt;&lt;span style=&quot;white-space: pre;&quot;&gt;&#x9;&lt;/span&gt;vector *p = (vector *)malloc(sizeof(vector));&lt;br&gt;&lt;/font&gt;&lt;/div&gt;&lt;div&gt;&lt;font color=&quot;#ffff33&quot;&gt;&lt;span style=&quot;white-space: pre;&quot;&gt;&#x9;&lt;/span&gt;p-&amp;gt;size = n;&lt;br&gt;&lt;/font&gt;&lt;/div&gt;&lt;div&gt;&lt;font color=&quot;#ffff33&quot;&gt;&lt;span style=&quot;white-space: pre;&quot;&gt;&#x9;&lt;/span&gt;p-&amp;gt;count = 0;&lt;br&gt;&lt;/font&gt;&lt;/div&gt;&lt;div&gt;&lt;font color=&quot;#ffff33&quot;&gt;&lt;span style=&quot;white-space: pre;&quot;&gt;&#x9;&lt;/span&gt;p-&amp;gt;data = (int *)malloc(sizeof(int) * n);&lt;br&gt;&lt;/font&gt;&lt;/div&gt;&lt;div&gt;&lt;font color=&quot;#ffff33&quot;&gt;&lt;span style=&quot;white-space: pre;&quot;&gt;&#x9;&lt;/span&gt;return p;&lt;br&gt;&lt;/font&gt;&lt;/div&gt;&lt;div&gt;&lt;font color=&quot;#ffff33&quot;&gt;}&lt;/font&gt;&lt;/div&gt;" style="rounded=1;whiteSpace=wrap;html=1;align=left;fillColor=#0050ef;strokeColor=#001DBC;fontColor=#ffffff;spacingLeft=17;fontSize=16;spacingBottom=-41;container=0;" vertex="1" parent="1">
          <mxGeometry x="19" y="1706" width="380" height="280" as="geometry" />
        </mxCell>
        <mxCell id="qrF5LxdkEoTXr47cuK2b-176" value="初始化顺序表" style="text;html=1;align=center;verticalAlign=middle;whiteSpace=wrap;rounded=0;fontColor=#FFFFFF;fontStyle=1;fontSize=15;container=0;" vertex="1" parent="1">
          <mxGeometry x="139" y="1736" width="140" height="30" as="geometry" />
        </mxCell>
        <mxCell id="qrF5LxdkEoTXr47cuK2b-177" value="&lt;font color=&quot;#ffff33&quot;&gt;Queue *initQueue(int n) {&lt;/font&gt;&lt;div&gt;&lt;font color=&quot;#ffff33&quot;&gt;&lt;span style=&quot;white-space: pre;&quot;&gt;&#x9;&lt;/span&gt;Queue *q = (Queue *)malloc(sizeof(Queue));&lt;/font&gt;&lt;/div&gt;&lt;div&gt;&lt;font color=&quot;#ffff33&quot;&gt;&lt;span style=&quot;white-space: pre;&quot;&gt;&#x9;&lt;/span&gt;q-&amp;gt;data = initVector(n);&lt;/font&gt;&lt;/div&gt;&lt;div&gt;&lt;font color=&quot;#ffff33&quot;&gt;&lt;span style=&quot;white-space: pre;&quot;&gt;&#x9;&lt;/span&gt;q-&amp;gt;size = n;&lt;/font&gt;&lt;/div&gt;&lt;div&gt;&lt;font color=&quot;#ffff33&quot;&gt;&lt;span style=&quot;white-space: pre;&quot;&gt;&#x9;&lt;/span&gt;q-&amp;gt;head = q-&amp;gt;tail = q-&amp;gt;count = 0;&lt;/font&gt;&lt;/div&gt;&lt;div&gt;&lt;font color=&quot;#ffff33&quot;&gt;&lt;span style=&quot;white-space: pre;&quot;&gt;&#x9;&lt;/span&gt;return q;&amp;nbsp;&lt;br&gt;&lt;/font&gt;&lt;/div&gt;&lt;div&gt;&lt;font color=&quot;#ffff33&quot;&gt;}&lt;/font&gt;&lt;/div&gt;" style="rounded=1;whiteSpace=wrap;html=1;align=left;fillColor=#0050ef;strokeColor=#001DBC;fontColor=#ffffff;spacingLeft=17;fontSize=16;spacingBottom=-41;container=0;" vertex="1" parent="1">
          <mxGeometry x="430" y="1706" width="380" height="280" as="geometry" />
        </mxCell>
        <mxCell id="qrF5LxdkEoTXr47cuK2b-178" value="初始化队列" style="text;html=1;align=center;verticalAlign=middle;whiteSpace=wrap;rounded=0;fontColor=#FFFFFF;fontStyle=1;fontSize=15;container=0;" vertex="1" parent="1">
          <mxGeometry x="550" y="1736" width="140" height="30" as="geometry" />
        </mxCell>
        <mxCell id="qrF5LxdkEoTXr47cuK2b-181" value="&lt;font color=&quot;#ffff33&quot;&gt;void clearVector(vector *v) {&lt;br&gt;&lt;span style=&quot;white-space: pre;&quot;&gt;&#x9;&lt;/span&gt;if (v == NULL) return ;&lt;/font&gt;&lt;div&gt;&lt;font color=&quot;#ffff33&quot;&gt;&lt;span style=&quot;white-space: pre;&quot;&gt;&#x9;&lt;/span&gt;free (v-&amp;gt;data);&lt;/font&gt;&lt;/div&gt;&lt;div&gt;&lt;font color=&quot;#ffff33&quot;&gt;&lt;span style=&quot;white-space: pre;&quot;&gt;&#x9;&lt;/span&gt;free (v);&lt;/font&gt;&lt;/div&gt;&lt;div&gt;&lt;font color=&quot;#ffff33&quot;&gt;&lt;span style=&quot;white-space: pre;&quot;&gt;&#x9;&lt;/span&gt;return ;&lt;br&gt;&lt;/font&gt;&lt;div&gt;&lt;font color=&quot;#ffff33&quot;&gt;}&lt;br&gt;&lt;/font&gt;&lt;/div&gt;&lt;/div&gt;" style="rounded=1;whiteSpace=wrap;html=1;align=left;fillColor=#0050ef;strokeColor=#001DBC;fontColor=#ffffff;spacingLeft=17;fontSize=16;spacingBottom=-41;container=0;" vertex="1" parent="1">
          <mxGeometry x="88.5" y="2040" width="241" height="250" as="geometry" />
        </mxCell>
        <mxCell id="qrF5LxdkEoTXr47cuK2b-182" value="销毁顺序表" style="text;html=1;align=center;verticalAlign=middle;whiteSpace=wrap;rounded=0;fontColor=#FFFFFF;fontStyle=1;fontSize=15;container=0;" vertex="1" parent="1">
          <mxGeometry x="129.5" y="2070" width="140" height="30" as="geometry" />
        </mxCell>
        <mxCell id="qrF5LxdkEoTXr47cuK2b-183" value="&lt;font color=&quot;#ffff33&quot;&gt;void clearQueue (Queue *q) {&lt;/font&gt;&lt;div&gt;&lt;font color=&quot;#ffff33&quot;&gt;&lt;span style=&quot;white-space: pre;&quot;&gt;&#x9;&lt;/span&gt;if (q ==&amp;nbsp; NULL) return ;&lt;br&gt;&lt;/font&gt;&lt;/div&gt;&lt;div&gt;&lt;font color=&quot;#ffff33&quot;&gt;&lt;span style=&quot;white-space: pre;&quot;&gt;&#x9;&lt;/span&gt;clearVector(q-&amp;gt;data);&lt;br&gt;&lt;/font&gt;&lt;/div&gt;&lt;div&gt;&lt;font color=&quot;#ffff33&quot;&gt;&lt;span style=&quot;white-space: pre;&quot;&gt;&#x9;&lt;/span&gt;free(q);&lt;br&gt;&lt;/font&gt;&lt;/div&gt;&lt;div&gt;&lt;font color=&quot;#ffff33&quot;&gt;&lt;span style=&quot;white-space: pre;&quot;&gt;&#x9;&lt;/span&gt;return ;&lt;br&gt;&lt;/font&gt;&lt;/div&gt;&lt;div&gt;&lt;font color=&quot;#ffff33&quot;&gt;}&lt;/font&gt;&lt;/div&gt;" style="rounded=1;whiteSpace=wrap;html=1;align=left;fillColor=#0050ef;strokeColor=#001DBC;fontColor=#ffffff;spacingLeft=17;fontSize=16;spacingBottom=-41;container=0;" vertex="1" parent="1">
          <mxGeometry x="495" y="2040" width="250" height="250" as="geometry" />
        </mxCell>
        <mxCell id="qrF5LxdkEoTXr47cuK2b-184" value="销毁队列" style="text;html=1;align=center;verticalAlign=middle;whiteSpace=wrap;rounded=0;fontColor=#FFFFFF;fontStyle=1;fontSize=15;container=0;" vertex="1" parent="1">
          <mxGeometry x="547.5" y="2070" width="140" height="30" as="geometry" />
        </mxCell>
        <mxCell id="qrF5LxdkEoTXr47cuK2b-187" value="&lt;div&gt;&lt;font color=&quot;#ffff33&quot;&gt;int push(Queue *q, int val) {&lt;/font&gt;&lt;/div&gt;&lt;div&gt;&lt;font color=&quot;#ffff33&quot;&gt;&lt;span style=&quot;white-space: pre;&quot;&gt;&#x9;&lt;/span&gt;if (q-&amp;gt;count == q-&amp;gt;size) return 0;&lt;/font&gt;&lt;/div&gt;&lt;div&gt;&lt;span style=&quot;white-space: pre;&quot;&gt;&#x9;&lt;/span&gt;&lt;font color=&quot;#b9e0a5&quot;&gt;// 使用顺序表的结构操做实现队列的结构操做&lt;/font&gt;&lt;br&gt;&lt;/div&gt;&lt;div&gt;&lt;font color=&quot;#ffff33&quot;&gt;&lt;span style=&quot;white-space: pre;&quot;&gt;&#x9;&lt;/span&gt;insertVector(q-&amp;gt;data, q-&amp;gt;tail, val);&lt;/font&gt;&lt;/div&gt;&lt;div&gt;&lt;font color=&quot;#ffff33&quot;&gt;&lt;span style=&quot;white-space: pre;&quot;&gt;&#x9;&lt;/span&gt;q-&amp;gt;tail += 1;&lt;/font&gt;&lt;/div&gt;&lt;div&gt;&lt;span style=&quot;color: rgb(255, 255, 51); white-space: pre;&quot;&gt;&#x9;&lt;/span&gt;&lt;font color=&quot;#b9e0a5&quot;&gt;// 循环队列，解决假溢出&lt;/font&gt;&lt;br&gt;&lt;/div&gt;&lt;div&gt;&lt;font color=&quot;#ffff33&quot;&gt;&lt;span style=&quot;white-space: pre;&quot;&gt;&#x9;&lt;/span&gt;if (q-&amp;gt;tail == q-&amp;gt;size) q-&amp;gt;tail = 0;&lt;/font&gt;&lt;/div&gt;&lt;div&gt;&lt;font color=&quot;#ffff33&quot;&gt;&lt;span style=&quot;white-space: pre;&quot;&gt;&#x9;&lt;/span&gt;q-&amp;gt;count += 1;&lt;/font&gt;&lt;/div&gt;&lt;div&gt;&lt;font color=&quot;#ffff33&quot;&gt;&lt;span style=&quot;white-space: pre;&quot;&gt;&#x9;&lt;/span&gt;return 1;&amp;nbsp;&lt;br&gt;&lt;/font&gt;&lt;/div&gt;&lt;div&gt;&lt;font color=&quot;#ffff33&quot;&gt;}&lt;/font&gt;&lt;/div&gt;" style="rounded=1;whiteSpace=wrap;html=1;align=left;fillColor=#0050ef;strokeColor=#001DBC;fontColor=#ffffff;spacingLeft=17;fontSize=16;spacingBottom=-41;container=0;" vertex="1" parent="1">
          <mxGeometry x="417" y="2350" width="381.5" height="250" as="geometry" />
        </mxCell>
        <mxCell id="qrF5LxdkEoTXr47cuK2b-188" value="队列特性push()" style="text;html=1;align=center;verticalAlign=middle;whiteSpace=wrap;rounded=0;fontColor=#FFFFFF;fontStyle=1;fontSize=15;container=0;" vertex="1" parent="1">
          <mxGeometry x="543" y="2361" width="140" height="30" as="geometry" />
        </mxCell>
        <mxCell id="qrF5LxdkEoTXr47cuK2b-189" value="&lt;div&gt;&lt;div&gt;&lt;font color=&quot;#ffff33&quot;&gt;int insertVector(vector *v, int pos, int val) {&lt;/font&gt;&lt;/div&gt;&lt;div&gt;&lt;font color=&quot;#ffff33&quot;&gt;&lt;span style=&quot;white-space: pre;&quot;&gt;&#x9;&lt;/span&gt;if (pos &amp;lt; 0 || pos &amp;gt; v-&amp;gt;size) return 0;&lt;br&gt;&lt;/font&gt;&lt;/div&gt;&lt;div&gt;&lt;font color=&quot;#ffff33&quot;&gt;&lt;span style=&quot;white-space: pre;&quot;&gt;&#x9;&lt;/span&gt;v-&amp;gt;data[pos] = val;&lt;br&gt;&lt;/font&gt;&lt;/div&gt;&lt;div&gt;&lt;font color=&quot;#ffff33&quot;&gt;&lt;span style=&quot;white-space: pre;&quot;&gt;&#x9;&lt;/span&gt;q-&amp;gt;count += 1;&lt;br&gt;&lt;/font&gt;&lt;/div&gt;&lt;div&gt;&lt;font color=&quot;#ffff33&quot;&gt;&lt;span style=&quot;white-space: pre;&quot;&gt;&#x9;&lt;/span&gt;return 1;&lt;br&gt;&lt;/font&gt;&lt;/div&gt;&lt;div&gt;&lt;font color=&quot;#ffff33&quot;&gt;}&lt;/font&gt;&lt;/div&gt;&lt;/div&gt;" style="rounded=1;whiteSpace=wrap;html=1;align=left;fillColor=#0050ef;strokeColor=#001DBC;fontColor=#ffffff;spacingLeft=17;fontSize=16;spacingBottom=-41;container=0;" vertex="1" parent="1">
          <mxGeometry x="28.75" y="2350" width="341.5" height="250" as="geometry" />
        </mxCell>
        <mxCell id="qrF5LxdkEoTXr47cuK2b-190" value="顺序表插入操做" style="text;html=1;align=center;verticalAlign=middle;whiteSpace=wrap;rounded=0;fontColor=#FFFFFF;fontStyle=1;fontSize=15;container=0;" vertex="1" parent="1">
          <mxGeometry x="120" y="2370" width="140" height="30" as="geometry" />
        </mxCell>
        <mxCell id="qrF5LxdkEoTXr47cuK2b-192" value="&lt;div&gt;&lt;font color=&quot;#ffff33&quot;&gt;int pop(Queue *q) {&lt;/font&gt;&lt;/div&gt;&lt;div&gt;&lt;font color=&quot;#ffff33&quot;&gt;&lt;span style=&quot;white-space: pre;&quot;&gt;&#x9;&lt;/span&gt;if (emptyQueue(q)) return 0;&lt;br&gt;&lt;/font&gt;&lt;/div&gt;&lt;div&gt;&lt;font color=&quot;#ffff33&quot;&gt;&lt;span style=&quot;white-space: pre;&quot;&gt;&#x9;&lt;/span&gt;q-&amp;gt;head += 1;&lt;br&gt;&lt;/font&gt;&lt;/div&gt;&lt;div&gt;&lt;font color=&quot;#ffff33&quot;&gt;&lt;span style=&quot;white-space: pre;&quot;&gt;&#x9;&lt;/span&gt;q-&amp;gt;count -= 1;&lt;br&gt;&lt;/font&gt;&lt;/div&gt;&lt;div&gt;&lt;font color=&quot;#ffff33&quot;&gt;&lt;span style=&quot;white-space: pre;&quot;&gt;&#x9;&lt;/span&gt;return 1;&lt;br&gt;&lt;/font&gt;&lt;/div&gt;&lt;div&gt;&lt;font color=&quot;#ffff33&quot;&gt;}&lt;/font&gt;&lt;/div&gt;" style="rounded=1;whiteSpace=wrap;html=1;align=left;fillColor=#0050ef;strokeColor=#001DBC;fontColor=#ffffff;spacingLeft=17;fontSize=16;spacingBottom=-41;container=0;" vertex="1" parent="1">
          <mxGeometry x="75.5" y="2673" width="263" height="250" as="geometry" />
        </mxCell>
        <mxCell id="qrF5LxdkEoTXr47cuK2b-193" value="队列特性pop()" style="text;html=1;align=center;verticalAlign=middle;whiteSpace=wrap;rounded=0;fontColor=#FFFFFF;fontStyle=1;fontSize=15;container=0;" vertex="1" parent="1">
          <mxGeometry x="137" y="2693" width="140" height="30" as="geometry" />
        </mxCell>
        <mxCell id="qrF5LxdkEoTXr47cuK2b-194" value="&lt;div&gt;&lt;font color=&quot;#ffff33&quot;&gt;int vectorSeek(vector *v, int pos) {&lt;/font&gt;&lt;/div&gt;&lt;div&gt;&lt;font color=&quot;#ffff33&quot;&gt;&lt;span style=&quot;white-space: pre;&quot;&gt;&#x9;&lt;/span&gt;if (pos &amp;lt; 0 || pos &amp;gt;= v-&amp;gt;size) return -1;&lt;br&gt;&lt;/font&gt;&lt;/div&gt;&lt;div&gt;&lt;font color=&quot;#ffff33&quot;&gt;&lt;span style=&quot;white-space: pre;&quot;&gt;&#x9;&lt;/span&gt;return v-&amp;gt;data[pos];&lt;br&gt;&lt;/font&gt;&lt;/div&gt;&lt;div&gt;&lt;font color=&quot;#ffff33&quot;&gt;}&lt;/font&gt;&lt;/div&gt;&lt;div&gt;&lt;font color=&quot;#ffff33&quot;&gt;&lt;br&gt;&lt;/font&gt;&lt;/div&gt;&lt;div&gt;&lt;font color=&quot;#ffff33&quot;&gt;int front(Queue *q) {&lt;br&gt;&lt;/font&gt;&lt;/div&gt;&lt;div&gt;&lt;font color=&quot;#ffff33&quot;&gt;&lt;span style=&quot;white-space: pre;&quot;&gt;&#x9;&lt;/span&gt;return vectorSeek(q-&amp;gt;data, q-&amp;gt;head);&lt;br&gt;&lt;/font&gt;&lt;/div&gt;&lt;div&gt;&lt;font color=&quot;#ffff33&quot;&gt;}&lt;/font&gt;&lt;/div&gt;" style="rounded=1;whiteSpace=wrap;html=1;align=left;fillColor=#0050ef;strokeColor=#001DBC;fontColor=#ffffff;spacingLeft=17;fontSize=16;spacingBottom=-41;container=0;" vertex="1" parent="1">
          <mxGeometry x="448.25" y="2673" width="338.5" height="250" as="geometry" />
        </mxCell>
        <mxCell id="qrF5LxdkEoTXr47cuK2b-195" value="队列元素查看" style="text;html=1;align=center;verticalAlign=middle;whiteSpace=wrap;rounded=0;fontColor=#FFFFFF;fontStyle=1;fontSize=15;container=0;" vertex="1" parent="1">
          <mxGeometry x="553.5" y="2693" width="140" height="30" as="geometry" />
        </mxCell>
      </root>
    </mxGraphModel>
  </diagram>
</mxfile>
